<?xml version="1.0" standalone="no"?>
<!DOCTYPE svg PUBLIC "-//W3C//DTD SVG 20010904//EN"
 "http://www.w3.org/TR/2001/REC-SVG-20010904/DTD/svg10.dtd">
<svg version="1.0" xmlns="http://www.w3.org/2000/svg"
 width="164.000000pt" height="188.000000pt" viewBox="0 0 164.000000 188.000000"
 preserveAspectRatio="xMidYMid meet">

<g transform="translate(0.000000,188.000000) scale(0.100000,-0.100000)"
fill="#000000" stroke="none">
<path d="M450 1574 c-195 -157 -367 -297 -382 -310 l-28 -24 0 -589 c0 -557 1
-589 18 -604 17 -16 84 -17 765 -17 664 0 747 2 761 16 14 14 16 68 16 448 0
323 -3 435 -12 444 -18 18 -56 14 -68 -7 -6 -13 -10 -162 -10 -415 l0 -396
-690 0 -690 0 0 543 1 542 345 277 346 277 355 -286 c196 -157 364 -288 374
-290 25 -7 49 14 49 42 0 18 -80 87 -382 329 -211 168 -390 306 -398 306 -8 0
-175 -129 -370 -286z"/>
<path d="M565 1061 c-22 -10 -62 -42 -89 -69 -48 -50 -50 -51 -61 -29 -9 18
-19 22 -54 21 -76 -2 -93 -55 -30 -93 l29 -18 -35 -31 c-63 -58 -75 -96 -75
-229 1 -83 5 -125 15 -143 8 -14 14 -41 15 -61 0 -54 26 -81 86 -86 67 -6 103
9 110 47 l7 30 338 0 c323 0 339 -1 339 -18 0 -36 37 -57 100 -57 72 0 100 21
100 74 0 20 9 54 20 76 16 31 20 59 20 130 0 111 -18 168 -70 228 l-39 44 29
22 c49 35 36 74 -27 87 -36 7 -73 -10 -73 -33 0 -9 -26 10 -69 49 -44 42 -80
67 -101 71 -18 4 -125 7 -239 7 -180 0 -211 -3 -246 -19z m493 -55 c15 -8 56
-44 92 -80 l64 -66 -394 0 -394 0 59 61 c100 102 88 99 333 99 165 0 219 -3
240 -14z m-640 -260 c26 -13 58 -36 72 -51 24 -26 25 -27 6 -41 -21 -15 -152
-20 -172 -6 -13 8 -34 46 -34 60 0 19 42 62 61 62 11 0 41 -11 67 -24z m912 4
c11 -11 20 -31 20 -45 0 -46 -32 -65 -109 -65 -81 0 -101 6 -101 30 0 29 103
99 148 100 12 0 31 -9 42 -20z m-248 -66 c12 -11 -12 -69 -37 -91 -25 -22 -33
-23 -226 -23 l-201 0 -29 29 c-19 20 -29 40 -29 60 l0 31 258 0 c142 0 261 -3
264 -6z"/>
</g>
</svg>
